<?xml version="1.0" encoding="utf-8"?>
<!-- Generator: Adobe Illustrator 19.0.0, SVG Export Plug-In . SVG Version: 6.00 Build 0)  -->
<svg version="1.1" xmlns="http://www.w3.org/2000/svg" xmlns:xlink="http://www.w3.org/1999/xlink" x="0px" y="0px"
	 viewBox="0 0 672.1 613" style="enable-background:new 0 0 672.1 613;" xml:space="preserve">
<style type="text/css">
	.st0{fill:#00A1C0;}
	.st1{fill:#E9B158;}
	.st2{fill:#7EC8D9;}
	.st3{fill:#00A3C1;}
</style>
<g id="points">
</g>
<g id="Layer_1">
	<g id="layer1">
	</g>
	<g>
		<g>
			<path class="st0" d="M224.8,573.7l15.8,2.2c3.8,0,7.1-1.7,10-5c2.8-3.3,4.9-7.5,6.3-12.5c2.6-9.6,4-18,4-25.4
				c0-7.4-1.2-14.7-3.7-21.9c-2.4-7.2-5.4-13.9-8.9-20.1c-3.5-6.2-7.1-12.5-10.7-19c-8.4-15.1-12.6-30.1-12.6-44.8
				c0-9,1.5-16.9,4.5-23.9c5.7-12.9,13.2-19.3,22.6-19.3c3.5,0,6.9,1.1,10,3.4c3.2,2.2,4.8,4.7,4.8,7.3c0,4.6-2.4,6.9-7.3,6.9
				c-2.1,0-4.2-0.6-6.3-1.8c-6.3,0.3-10.6,7.4-12.9,21.2c-0.5,3-0.7,6.6-0.7,10.6c0,4.1,0.9,9.1,2.6,15c1.8,6,4,11.3,6.7,15.9
				c2.7,4.6,5.6,9.8,8.6,15.4c3.1,5.6,6,11.1,8.7,16.3c6.2,12.2,9.2,26.2,9.2,41.9c0,12.5-2.5,24.1-7.5,34.7
				c-2.6,5.5-6.4,9.9-11.2,13.4c-4.8,3.5-10.4,5.2-16.8,5.3v0.7c-3.7-0.5-7.1-1.7-10.1-3.7c-3-2-4.7-4.6-5.1-7.8V573.7z"/>
			<path class="st0" d="M319.2,418.2l0.9,72.1c-1.2,2.8-1.8,8.3-1.8,16.3l-1.2,47.8c0,13.8,3.4,20.7,10.1,20.7l12.5-0.4
				c10.7,0,16.1,2.9,16.1,8.8c0,2.1-0.9,3.9-2.8,5.3c-1.9,1.4-4,2.3-6.3,2.6c-7.3-2.3-16.3-3.5-26.8-3.5c-3.2,1.9-6.3,2.8-9.3,2.8
				c-3,0-5.3-1-7-3.1c-1.7-2.1-2.5-4.3-2.5-6.7l2.9-134v-2.2c-0.6-6.2-0.9-15.6-0.9-28.1c0-18.9,3.5-28.4,10.4-28.4
				c2.1,0,3.8,0.7,5.3,2.2c1.5,1.5,2.3,3.2,2.3,5.3L319.2,418.2z"/>
			<path class="st0" d="M447.4,537.8l-1.6,6c0,2.4,0.9,8.4,2.6,17.9c1.8,9.5,2.6,15.7,2.6,18.6v0.3c0,4.5-1.5,7.3-4.5,8.5
				c-4.2,0-7.5-0.7-9.8-2.1s-3.5-4.8-3.5-10.3c0-5.5-1.5-16.9-4.4-34.1l-9.2-0.9h-10c-2.2-1-6.2-1.5-11.9-1.5c0,0.2-0.1,1.5-0.4,3.9
				c-0.2,2.4-0.4,4.3-0.6,5.8s-0.4,3.6-0.7,6.5c-0.3,2.9-0.7,5.3-1.1,7.3c-0.4,2-0.9,4.3-1.5,7c-0.6,2.7-1.2,4.9-2,6.7
				c-0.7,1.8-1.5,3.5-2.4,5.2c-1.8,3.4-3.9,5.1-6.4,5.1c-2.5,0-4.8-0.8-6.8-2.3c-2-1.5-3-3.4-3-5.8c5.3-20.2,9.8-41.4,13.5-63.6
				c3.8-22.2,6-35.3,6.7-39.5c0.7-4.1,2.4-12.2,5.1-24c2.7-11.9,4.3-19.8,4.8-23.8c0.5-4,1-9.2,1.5-15.5c0.9-13.9,2.7-22.8,5.4-26.8
				h10.1c6.8,0,10.3,2.1,10.3,6.2c0,38.6,3.8,76.9,11.3,115c0.4,2.2,1.1,5.4,2.2,9.4C446.2,525.9,447.4,532.8,447.4,537.8z
				 M426.8,531.4c-0.6-2.9-0.9-7.7-0.9-14.2c0-6.5-0.4-14.5-1.2-23.8c-0.8-9.3-2-20.1-3.6-32.4c-1.6-12.3-2.6-21.2-3.2-26.7
				c-1.2,5.7-3.5,15.1-6.9,28.4c-6.9,27.6-10.5,48.9-10.7,63.9C403.7,528.8,412.6,530.4,426.8,531.4z"/>
			<path class="st0" d="M493.2,468l1.8,77.6v34c0,2.6-0.7,4.9-2.1,6.7c-1.4,1.8-3.3,2.7-5.7,2.7c-6.5,0-9.8-6.1-9.8-18.3l-0.6-105.8
				l1.8-56c0-13.5,3.7-20.2,11-20.2c4.4,0,7.6,3.4,9.5,10.1c2.7,12.9,7.5,31.4,14.3,55.6c6.8,24.2,11.4,42.6,14,55.2
				c1.9,6.2,4.2,15.3,7.2,27.3c2.9,12.1,5.2,21.1,6.9,27.2c0.8-43.4,1.2-95.9,1.2-157.6l-0.4-8.1c0-2.7,0.5-4.9,1.5-6.5
				s2.8-2.4,5.2-2.4c2.4,0,4.4,0.6,6,1.8c3.1,2.3,4.7,5.7,4.7,10c0,27.4-0.8,62.7-2.3,105.8c-1.6,43.1-3.9,70-7,80.7
				c-0.4,0.1-1.2,0.4-2.5,0.8c-1.3,0.4-2.2,0.7-2.8,0.8c-5.6,1.3-9.1,1-10.5-0.7s-2.5-4.1-3.1-7c-0.6-2.9-1.4-5.8-2.2-8.6
				c-0.8-2.8-3.9-16.1-9.3-39.9c-14.4-63-23.2-99.6-26.5-109.9V468z"/>
			<path class="st0" d="M655.7,468l-0.6,15.1v16.4c0,19.8-0.9,33.2-2.6,40.1c-1.8,6.9-3.5,12.6-5.3,17.1c-1.8,4.5-4,8.5-6.5,12
				c-5.9,7.9-13.3,14.4-22.3,19.3h-20.5c-5.1,0-7.6-13.1-7.6-39.3l0.9-94.5c0-17.5-0.3-33.9-1-49.2c-1.7-2-2.5-4.3-2.5-7
				c0-2.7,1.1-5,3.4-7c2.2-2,5-3,8.1-3c3.2,0,5.9,1.8,8.1,5.3c1.5,0.6,3.6,1.1,6.5,1.6c2.9,0.5,5,1.1,6.4,1.8
				c11.1,5.2,19.8,14.3,26.1,27.5C652.5,437.4,655.7,451.9,655.7,468z M606.6,433.2l3.4,132.4v7.2h5.4
				c10.4-12.7,17.2-24.3,20.2-34.9c2.8-9.9,4.2-23.6,4.2-41.3c0-60.4-10.4-91.9-31.1-94.6C607.3,409.9,606.6,420.4,606.6,433.2z"/>
		</g>
		<g>
			<g>
				<circle class="st1" cx="202.4" cy="148.3" r="56"/>
				<path class="st1" d="M261.2,111.1c-3.5-6.1-8.2-11.7-13.8-16.4c-5.7-4.8-12-8.4-18.6-10.8L283.9,51L261.2,111.1z"/>
				<path class="st1" d="M217.7,80.4c-6.8-1.8-14-2.5-21.4-1.8c-7.4,0.7-14.4,2.6-20.8,5.5l15.8-62.2L217.7,80.4z"/>
				<path class="st1" d="M165.2,89.4c-6.1,3.5-11.7,8.2-16.4,13.8c-4.8,5.7-8.4,12-10.8,18.6l-32.9-55.2L165.2,89.4z"/>
				<path class="st1" d="M134.5,133c-1.8,6.8-2.5,14-1.8,21.4c0.7,7.4,2.6,14.4,5.5,20.8L76,159.4L134.5,133z"/>
				<path class="st1" d="M143.6,185.4c3.5,6.1,8.2,11.7,13.8,16.4c5.7,4.8,12,8.4,18.6,10.8l-55.2,32.9L143.6,185.4z"/>
				<path class="st1" d="M187.1,216.1c6.8,1.8,14,2.5,21.4,1.8c7.4-0.7,14.4-2.6,20.8-5.5l-15.8,62.2L187.1,216.1z"/>
				<path class="st1" d="M239.6,207.1c6.1-3.5,11.7-8.2,16.4-13.8c4.8-5.7,8.4-12,10.8-18.6l32.9,55.2L239.6,207.1z"/>
				<path class="st1" d="M270.3,163.5c1.8-6.8,2.5-14,1.8-21.4c-0.7-7.4-2.6-14.4-5.5-20.8l62.2,15.8L270.3,163.5z"/>
			</g>
			<g>
				<g>
					<path class="st2" d="M156.1,554.1c-5.1,15.4-12.9,31.9-2.3,34.9c10.6,3,38.7,3,43.3-0.8c4.6-3.8,0.8-22.8-6.1-30.4
						C184.1,550.3,159.1,544.9,156.1,554.1z"/>
					<path class="st2" d="M156.8,522.9c-5.1,15.4-12.9,31.9-2.3,34.9c10.6,3,38.7,3,43.3-0.8c4.6-3.8,0.8-22.8-6.1-30.4
						C184.9,519.1,159.8,513.8,156.8,522.9z"/>
					<path class="st0" d="M156.9,490.2c-4.7,14-11.7,29-2.1,31.8c9.7,2.8,35.2,2.8,39.4-0.7c4.1-3.4,0.7-20.7-5.5-27.6
						C182.4,486.8,159.7,482,156.9,490.2z"/>
					<path class="st2" d="M160.7,456.8c-6,13.5-14.6,27.7-5.2,31.4c9.3,3.7,34.8,6.3,39.2,3.2c4.5-3,2.8-20.5-2.7-28
						C186.5,455.9,164.3,448.8,160.7,456.8z"/>
					<path class="st0" d="M165.5,426.5c-5.9,12.4-14.2,25.5-5.6,29.2c8.6,3.7,32.3,6.6,36.6,3.9c4.2-2.7,3-19.1-1.9-26.2
						C189.6,426.2,169.1,419.1,165.5,426.5z"/>
					<path class="st0" d="M172.3,395.6c-7.1,11.8-16.6,24-8.4,28.5c8.3,4.5,31.5,9.7,36,7.4c4.5-2.3,4.9-18.7,0.6-26.3
						C196.3,397.7,176.5,388.6,172.3,395.6z"/>
					<path class="st2" d="M178.1,369c-6.1,10.8-14.3,22.1-6.7,25.9c7.6,3.8,28.7,7.8,32.6,5.6c4-2.2,3.8-17-0.2-23.7
						C199.8,370.2,181.7,362.6,178.1,369z"/>
					<path class="st0" d="M185.8,345.2c-5.4,9.7-12.8,19.8-6,23.2c6.8,3.4,25.7,7,29.2,5c3.6-2,3.4-15.2-0.2-21.2
						C205.2,346.3,189,339.5,185.8,345.2z"/>
					<path class="st2" d="M193.1,324.9c-4.9,8.7-11.5,17.8-5.4,20.9c6.1,3.1,23.1,6.3,26.3,4.5c3.2-1.8,3.1-13.7-0.2-19.1
						C210.6,325.8,196,319.7,193.1,324.9z"/>
					<path class="st0" d="M199.4,305c-4.4,7.9-10.4,16.1-4.9,18.9c5.5,2.8,20.9,5.7,23.8,4.1c2.9-1.6,2.8-12.4-0.2-17.3
						C215.2,305.8,202,300.3,199.4,305z"/>
				</g>
				<path class="st2" d="M334.9,313.1c2.7,1.1,4.6,3.9,6.1,6.4l0,0c28.2-4.3,47.3-11.9,47.3-11.9s-23.9-29.9-58.7-43.6
					c-0.5,0.2-1.1,0.5-1.6,0.8c-2.9,1.9-4.5,5-6.9,7.5c-0.8-4.2-0.3-8.3-1-11.5c-4.8-1.4-9.7-2.4-14.8-3c-3.6,4.5-4.7,12.8-6,18.2
					c-0.6-5-1.6-12.9-1.3-18.7c-1.6,0-3.2,0-4.8,0c-53.6,1.8-89.4,48.1-89.4,48.1s20.1,5.2,43.3,9.8c3.6-5.1,11.6-10.7,14.5-11.5
					c-0.8,4.2-1,9.3-0.6,14.1c14,2.5,28,4.4,38.5,4.5c13,0.2,25.3-0.8,36.4-2.2C335.3,318,335.1,315.3,334.9,313.1z"/>
				<path class="st3" d="M208.2,297.3c-24.1-25.1-53-42.1-96.6-43.5c-4.4-0.1-8.8,0.1-13.3,0.6L89,267.7l-11.3-9.4
					c-32.7,8.8-61.3,27.2-61.3,27.2s15.2,9.3,38.8,18.4c2.1-2,4-4.1,5.4-6.6c2.5,1.1,4.8,6.1,6.1,10.7c18.6,6.2,41,11.6,64.8,12.6
					c5.2,0.2,10,0.3,14.6,0.3c1.8-2.3,3.9-4.6,5.1-7c2.8,1.1,4.8,3.9,6.4,6.7c40.7-2.2,51.6-13.9,51.6-13.9L208.2,297.3z"/>
			</g>
		</g>
	</g>
</g>
</svg>
