<?xml version="1.0" encoding="utf-8"?>
<!-- Generator: Adobe Illustrator 19.0.0, SVG Export Plug-In . SVG Version: 6.00 Build 0)  -->
<svg version="1.1" id="Layer_1" xmlns="http://www.w3.org/2000/svg" xmlns:xlink="http://www.w3.org/1999/xlink" x="0px" y="0px"
	 viewBox="-451 252.3 56.7 56.7" style="enable-background:new -451 252.3 56.7 56.7;" xml:space="preserve">
<style type="text/css">
	.st0{fill:#DCAB5E;}
</style>
<path class="st0" d="M-396.8,281.4c-0.2-0.2-0.9-0.6-1.6-0.8c0-0.2-0.1-0.4-0.2-0.6c-0.2-0.6-0.7-1-1.4-1.1
	c-1.1-0.1-2.3,0.4-3.2,0.9c-1.7-6-6.8-11.1-13.6-13.2c0.5-1,0.8-2.2,0.8-3.4c0-4.4-3.6-8-8-8c-4.4,0-8,3.6-8,8
	c0,1.3,0.3,2.5,0.8,3.5c-2.3,0.8-4.5,1.9-6.3,3.3c-2.1-1.1-4.5-1.1-6,0.1l-0.8,0.6l2.6,3.5c-1.3,1.8-2.3,3.8-2.8,5.9h-1.1
	c-1.7,0-3.1,1.4-3.1,3.1v8.9c0,1.7,1.4,3.1,3.1,3.1h4.4c1.3,1.6,2.9,3.1,4.7,4.3v4.2c0,1.3,0.9,2.3,2.1,2.3h3.8c1.1,0,2.1-1,2.1-2.3
	v-0.9c2.9,0.6,5.9,0.7,9,0.1v0.9c0,1.3,0.9,2.3,2.1,2.3h3.8c1.1,0,2.1-1,2.1-2.3v-3.9c5.7-3.5,9.2-9.3,9.2-15.5
	c0-1.2-0.1-2.4-0.4-3.6c0.8-0.5,1.9-1,2.8-0.9c0.3,0,0.4,0.2,0.6,0.4c-0.6-0.1-1.2-0.1-1.5,0.2c-0.4,0.4-0.6,1-0.5,1.5
	c0.2,0.6,0.7,1,1.4,1.1c0.1,0,0.1,0,0.2,0c0.4,0,0.7-0.2,1-0.5c0.2-0.3,0.3-0.6,0.4-0.9c0.4,0.1,0.8,0.3,0.9,0.4
	c0.2,0.2,0.5,0.2,0.7,0C-396.7,281.9-396.7,281.6-396.8,281.4z M-423.9,257.2c3.3,0,6,2.7,6,6c0,1.2-0.4,2.4-1,3.3l0,0
	c0,0-0.1,0.1-0.1,0.1c-0.1,0.2-0.2,0.3-0.4,0.5c0,0-0.1,0.1-0.1,0.1c-0.1,0.1-0.3,0.3-0.4,0.4c0,0-0.1,0.1-0.1,0.1
	c-0.4,0.3-0.7,0.6-1.1,0.8c0,0,0,0,0,0c-0.2,0.1-0.4,0.2-0.6,0.3c0,0-0.1,0-0.1,0c-0.2,0.1-0.3,0.1-0.5,0.2c-0.1,0-0.1,0-0.2,0
	c-0.2,0-0.3,0.1-0.5,0.1c-0.1,0-0.1,0-0.2,0c-0.2,0-0.5,0-0.7,0c-0.2,0-0.5,0-0.7,0c0,0-0.1,0-0.1,0c-0.2,0-0.4-0.1-0.5-0.1
	c0,0-0.1,0-0.1,0c-0.2,0-0.4-0.1-0.6-0.2c0,0-0.1,0-0.1,0c-0.9-0.3-1.6-0.8-2.3-1.5c0,0,0,0,0-0.1c-0.1-0.2-0.3-0.3-0.4-0.5
	c0,0-0.1-0.1-0.1-0.1l-0.1-0.1c-0.6-1-1-2.1-1-3.3C-429.9,259.9-427.2,257.2-423.9,257.2z M-413.1,298.5l-0.5,0.3l0,5
	c0,0.2-0.1,0.3-0.1,0.3l-3.7,0c0,0-0.1-0.1-0.1-0.3v-3.4l-1.2,0.3c-3.6,0.8-7.1,0.8-10.5-0.1l-1.3-0.3v3.5c0,0.2-0.1,0.3-0.1,0.3
	l-3.8,0c0,0-0.1-0.1-0.1-0.3l0-4.3l0.2-0.8l-0.6-0.4c-2-1.2-3.7-2.7-5-4.5l-0.3-0.4h-5.4c-0.6,0-1.1-0.5-1.1-1.1v-8.9
	c0-0.6,0.5-1.1,1.1-1.1h2.7l0.2-0.8c0.5-2.3,1.5-4.5,3.1-6.5l0.5-0.6l-2.2-3c1-0.2,2.3,0.1,3.5,0.8l0.6,0.4l0.6-0.4
	c1.9-1.6,4.3-2.8,6.8-3.5c0,0,0.1,0,0.1,0.1c0.2,0.2,0.3,0.3,0.5,0.5c0,0,0.1,0.1,0.1,0.1c0.2,0.1,0.3,0.3,0.5,0.4
	c0,0,0.1,0.1,0.1,0.1c0.1,0.1,0.1,0.1,0.2,0.2c-1.3,0.3-2.6,0.8-3.8,1.4c-0.5,0.3-0.7,0.9-0.4,1.3c0.3,0.5,0.9,0.7,1.3,0.4
	c2.3-1.2,4.9-1.8,7.5-1.8c2.8,0,5.5,0.7,7.9,2c0.2,0.1,0.3,0.1,0.5,0.1c0.4,0,0.7-0.2,0.9-0.5c0.3-0.5,0.1-1.1-0.4-1.4
	c-1.4-0.7-2.9-1.3-4.4-1.7c0,0,0.1-0.1,0.1-0.1c0.1-0.1,0.1-0.1,0.2-0.2c0.2-0.1,0.3-0.3,0.4-0.4c0.1-0.1,0.1-0.1,0.2-0.2
	c0.2-0.2,0.3-0.3,0.5-0.5c0,0,0.1-0.1,0.1-0.1c7.9,2.2,13.3,8.8,13.3,16C-404.5,290.1-407.7,295.3-413.1,298.5z M-399.7,281.9
	c-0.1,0.1-0.1,0.2-0.2,0.2c-0.2,0-0.5-0.1-0.6-0.3c0-0.2,0-0.3,0.1-0.4c0.1,0,0.1,0,0.3,0c0.2,0,0.4,0,0.7,0.1
	C-399.5,281.6-399.6,281.8-399.7,281.9z M-434.8,281.1c0,0.9-0.7,1.7-1.7,1.7c-0.9,0-1.7-0.7-1.7-1.7c0-0.9,0.7-1.7,1.7-1.7
	C-435.6,279.4-434.8,280.2-434.8,281.1z"/>
</svg>
