<?xml version="1.0" encoding="utf-8"?>
<!-- Generator: Adobe Illustrator 19.0.0, SVG Export Plug-In . SVG Version: 6.00 Build 0)  -->
<svg version="1.1" id="Layer_1" xmlns="http://www.w3.org/2000/svg" xmlns:xlink="http://www.w3.org/1999/xlink" x="0px" y="0px"
	 viewBox="-451 252.3 56.7 56.7" style="enable-background:new -451 252.3 56.7 56.7;" xml:space="preserve">
<style type="text/css">
	.st0{fill:#DCAB5E;}
</style>
<path class="st0" d="M-397.7,261.9c0-3.3-2.7-6-6-6h-37.9c-3.3,0-6,2.7-6,6v25.6c0,0.4,0.1,0.9,0.1,1.3h0c0,0,0,0.1,0,0.1
	c0,0,0,0.1,0,0.1h0c0.7,2.6,3,4.5,5.8,4.5h12.1l-9.3,9.3c-0.6,0.6-0.6,1.5,0,2.1s1.5,0.6,2.1,0l11-11c0.1-0.1,0.2-0.3,0.3-0.4h1.3
	v10.4c0,0.8,0.7,1.5,1.5,1.5s1.5-0.7,1.5-1.5v-10.4h1.3c0.1,0.1,0.1,0.3,0.3,0.4l11,11c0.6,0.6,1.5,0.6,2.1,0s0.6-1.5,0-2.1
	l-9.3-9.3h12.1c2.8,0,5.1-1.9,5.8-4.5h0c0,0,0-0.1,0-0.1c0,0,0-0.1,0-0.1h0c0.1-0.4,0.1-0.8,0.1-1.3L-397.7,261.9L-397.7,261.9z
	 M-445.6,261.9c0-2.2,1.8-4,4-4h37.9c2.2,0,4,1.8,4,4V287h-45.9V261.9z M-405.5,264.3l1.9,2.4l-19.3,15.2l-7.3-7.3l-9.7,7.2
	l-1.8-2.4l11.8-8.8l7.2,7.2L-405.5,264.3z"/>
</svg>
