<?xml version="1.0" encoding="utf-8"?>
<!-- Generator: Adobe Illustrator 19.0.0, SVG Export Plug-In . SVG Version: 6.00 Build 0)  -->
<svg version="1.1" id="Layer_1" xmlns="http://www.w3.org/2000/svg" xmlns:xlink="http://www.w3.org/1999/xlink" x="0px" y="0px"
	 viewBox="-451 252.3 56.7 56.7" style="enable-background:new -451 252.3 56.7 56.7;" xml:space="preserve">
<style type="text/css">
	.st0{fill:#DCAB5E;}
</style>
<path class="st0" d="M-422.7,296c-8.4,0-15.3-6.9-15.3-15.3c0-8.4,6.9-15.3,15.3-15.3c8.4,0,15.3,6.9,15.3,15.3
	C-407.4,289.1-414.2,296-422.7,296z M-422.7,267.4c-7.3,0-13.3,6-13.3,13.3c0,7.3,6,13.3,13.3,13.3c7.3,0,13.3-6,13.3-13.3
	C-409.4,273.3-415.3,267.4-422.7,267.4z M-419.8,260.7L-419.8,260.7C-419.8,260.7-419.8,260.7-419.8,260.7c0-0.8-2.1-4.3-2.8-4.3
	c-0.7,0-2.8,3.4-2.8,4.3c0,0,0,0,0,0l0,0h0c0,1.3,1.3,2.3,2.8,2.3C-421.1,263-419.9,262-419.8,260.7L-419.8,260.7z M-425.5,300.6
	L-425.5,300.6C-425.5,300.6-425.5,300.6-425.5,300.6c0,0.8,2.1,4.3,2.8,4.3c0.7,0,2.8-3.4,2.8-4.3c0,0,0,0,0,0l0,0h0
	c0-1.3-1.3-2.3-2.8-2.3C-424.2,298.3-425.4,299.3-425.5,300.6L-425.5,300.6z M-402.7,283.5L-402.7,283.5
	C-402.7,283.5-402.7,283.5-402.7,283.5c0.9,0,4.3-2.1,4.3-2.8c0-0.7-3.4-2.8-4.3-2.8c0,0,0,0,0,0l0,0v0c-1.3,0-2.3,1.3-2.3,2.8
	C-405,282.2-404,283.4-402.7,283.5L-402.7,283.5z M-442.6,277.8L-442.6,277.8C-442.6,277.9-442.6,277.9-442.6,277.8
	c-0.8,0-4.3,2.1-4.3,2.8c0,0.7,3.4,2.8,4.3,2.8c0,0,0,0,0,0l0,0v0c1.3,0,2.3-1.3,2.3-2.8C-440.3,279.1-441.3,277.9-442.6,277.8
	L-442.6,277.8z M-434.7,264.6L-434.7,264.6C-434.8,264.6-434.8,264.6-434.7,264.6c-0.6-0.6-4.5-1.5-5-1c-0.5,0.5,0.4,4.4,1,5
	c0,0,0,0,0,0l0,0l0,0c0.9,0.9,2.5,0.7,3.6-0.4C-434,267.1-433.9,265.5-434.7,264.6L-434.7,264.6z M-410.6,296.7L-410.6,296.7
	C-410.5,296.8-410.5,296.8-410.6,296.7c0.6,0.6,4.5,1.5,5,1c0.5-0.5-0.4-4.4-1-5c0,0,0,0,0,0l0,0l0,0c-0.9-0.9-2.5-0.7-3.6,0.4
	C-411.3,294.2-411.4,295.8-410.6,296.7L-410.6,296.7z M-406.6,268.6L-406.6,268.6C-406.6,268.5-406.6,268.5-406.6,268.6
	c0.6-0.6,1.5-4.5,1-5c-0.5-0.5-4.4,0.4-5,1c0,0,0,0,0,0l0,0l0,0c-0.9,0.9-0.7,2.5,0.4,3.6C-409.1,269.3-407.5,269.4-406.6,268.6
	L-406.6,268.6z M-438.7,292.7L-438.7,292.7C-438.7,292.8-438.7,292.8-438.7,292.7c-0.6,0.6-1.5,4.5-1,5c0.5,0.5,4.4-0.4,5-1
	c0,0,0,0,0,0l0,0l0,0c0.9-0.9,0.7-2.5-0.4-3.6C-436.2,292-437.8,291.9-438.7,292.7L-438.7,292.7z"/>
</svg>
